<?xml version="1.0" encoding="UTF-8"?>
<!-- Updated logo file -->
<svg width="1563px" height="294px" viewBox="0 0 1563 294" version="1.1" xmlns="http://www.w3.org/2000/svg" xmlns:xlink="http://www.w3.org/1999/xlink">
    <title>light</title>
    <g id="light" stroke="none" stroke-width="1" fill="none" fill-rule="evenodd">
        <g id="Group-2-Copy" transform="translate(19, 0)" fill="#070709" fill-rule="nonzero">
            <path d="M179.081285,12.8869667 C191.696732,25.4839087 195.471668,44.4083694 188.63437,60.8514503 C181.816302,77.3137323 165.753312,88.0260071 147.918256,88.0260071 C120.994172,88.0742491 98.2304779,105.880046 90.753045,130.336954 C98.3471208,138.244932 98.0644266,135.922736 110.282139,123.371701 C115.047705,115.569934 122.226535,109.270149 131.04615,105.623875 C147.513944,98.8158351 166.485017,102.585169 179.081285,115.16291 C191.696732,127.759852 195.471668,146.684313 188.63437,163.127394 C181.816302,179.589676 165.753312,190.30195 147.918256,190.30195 C114.945194,190.361031 88.2119325,217.053097 88.1541506,249.978153 C88.1541506,274.287307 68.4316507,294 44.08669,294 C19.7417293,294 0,274.287307 0,249.978153 C0,238.303852 4.6421834,227.111056 12.9049247,218.860467 C21.1868954,210.590727 32.3961782,205.955815 44.0871831,205.955815 C72.2611675,205.92216 95.8797652,186.428997 102.181633,160.215333 C95.6081728,153.763837 95.4413913,157.453191 81.5445886,171.28147 C81.3416801,171.484087 81.143253,171.668747 80.9492404,171.835951 C73.079072,183.811507 59.5105942,191.724057 44.08669,191.724057 C19.7417293,191.724057 0,172.011364 0,147.70221 C0,136.027908 4.6421834,124.835112 12.9049247,116.584524 C21.1868954,108.314784 32.3961782,103.679871 44.0871831,103.679871 C77.0597513,103.640484 103.793043,76.948418 103.831566,44.0233617 C103.831566,26.2145372 114.578849,10.1559718 131.04615,3.34793173 C147.513944,-3.46010833 166.485017,0.309225967 179.081285,12.8869667 Z M145.612627,200.717371 C169.966537,200.717371 189.696287,220.437972 189.696287,244.756878 C189.696287,262.553638 178.964783,278.618646 162.471698,285.429417 C145.99785,292.240188 127.03904,288.469342 114.418905,275.886555 C101.818056,263.28456 98.0417325,244.352507 104.862307,227.902829 C111.682882,211.453152 127.771013,200.717371 145.612627,200.717371 Z M47.7030425,5.17963514 C72.056953,5.17963514 91.7867032,24.9002361 91.7867032,49.2191421 C91.7867032,67.0159021 81.0551988,83.0809098 64.5621141,89.8916811 C48.0882659,96.7024523 29.1294556,92.9316059 16.5093208,80.3488193 C3.90847192,67.7468238 0.1321484,48.814771 6.95272307,32.3650936 C13.7732977,15.9154163 29.8614293,5.17963514 47.7030425,5.17963514 Z" id="Combined-Shape"></path>
        </g>
        <text id="someone-copy" font-family="MontserratAlternates-Bold, Montserrat Alternates" font-size="277.598226" font-weight="bold" letter-spacing="-5.480078" fill="#070709">
            <tspan x="255" y="224">som</tspan>
            <tspan x="858.991801" y="224" font-family="Montserrat-Bold, Montserrat">e</tspan>
            <tspan x="1028.6762" y="224">one</tspan>
        </text>
    </g>
</svg>
